<svg width="24" height="24" viewBox="0 0 24 24" fill="none" xmlns="http://www.w3.org/2000/svg">
<g clip-path="url(#clip0_5916_48)">
<path d="M13 19L12.9099 18.8749C12.2848 18.0067 11.413 17.3143 11 17M13 19V9.33333M13 19L13.0901 18.8749C13.7152 18.0067 14.0278 17.5725 14.4408 17.2582C14.8064 16.9799 15.2277 16.7712 15.6806 16.6438C16.192 16.5 16.7556 16.5 17.8827 16.5H19.12C20.1281 16.5 20.6322 16.5 21.0172 16.3183C21.3559 16.1586 21.6313 15.9036 21.8038 15.59C22 15.2335 22 14.7667 22 13.8333V6.66667C22 5.73324 22 5.26653 21.8038 4.91002C21.6313 4.59641 21.3559 4.34144 21.0172 4.18166C20.6322 4 20.1281 4 19.12 4H18.76C16.7438 4 15.7357 4 14.9656 4.36331C14.2883 4.68289 13.7375 5.19283 13.3924 5.82003C13 6.53307 13 7.46649 13 9.33333M4 10.5V6.66667C4 5.73324 4 5.26653 4.19619 4.91002C4.36876 4.59641 4.64412 4.34144 4.98282 4.18166C5.36786 4 5.8719 4 6.88 4H7.24C9.25619 4 10.2643 4 11.0344 4.36331C11.7117 4.68289 12.2625 5.19283 12.6076 5.82003C13 6.53307 13 7.46649 13 9.33333" stroke="#010B2E" stroke-width="1.75" stroke-linecap="round" stroke-linejoin="round"/>
<path d="M5 13.5V19.5M2 16.5H8" stroke="#010B2E" stroke-width="1.75" stroke-linecap="round" stroke-linejoin="round"/>
</g>
<defs>
<clipPath id="clip0_5916_48">
<rect width="24" height="24" fill="white"/>
</clipPath>
</defs>
</svg>
