<svg width="16" height="16" viewBox="0 0 16 16" fill="none" xmlns="http://www.w3.org/2000/svg">
<g clip-path="url(#clip0_5916_51)">
<path d="M8.66663 12.6666L8.60657 12.5832C8.18981 12.0044 7.60863 11.5428 7.33329 11.3333M8.66663 12.6666V6.22218M8.66663 12.6666L8.72669 12.5832C9.14345 12.0044 9.35183 11.715 9.62717 11.5054C9.87089 11.3199 10.1517 11.1807 10.4537 11.0958C10.7946 11 11.1704 11 11.9217 11H12.7466C13.4187 11 13.7547 11 14.0114 10.8788C14.2372 10.7723 14.4208 10.6023 14.5358 10.3933C14.6666 10.1556 14.6666 9.84446 14.6666 9.22218V4.4444C14.6666 3.82212 14.6666 3.51098 14.5358 3.2733C14.4208 3.06423 14.2372 2.89425 14.0114 2.78773C13.7547 2.66663 13.4187 2.66663 12.7466 2.66663H12.5066C11.1625 2.66663 10.4904 2.66663 9.97703 2.90883C9.52547 3.12189 9.15833 3.46184 8.92823 3.87998C8.66663 4.35534 8.66663 4.97762 8.66663 6.22218M2.66663 6.99996V4.4444C2.66663 3.82212 2.66663 3.51098 2.79742 3.2733C2.91246 3.06423 3.09604 2.89425 3.32184 2.78773C3.57853 2.66663 3.91456 2.66663 4.58663 2.66663H4.82663C6.17075 2.66663 6.84281 2.66663 7.3562 2.90883C7.80779 3.12189 8.17493 3.46184 8.40503 3.87998C8.66663 4.35534 8.66663 4.97762 8.66663 6.22218" stroke="#010B2E" stroke-width="1.25" stroke-linecap="round" stroke-linejoin="round"/>
<path d="M3.33337 9V13M1.33337 11H5.33337" stroke="#010B2E" stroke-width="1.25" stroke-linecap="round" stroke-linejoin="round"/>
</g>
<defs>
<clipPath id="clip0_5916_51">
<rect width="16" height="16" fill="white"/>
</clipPath>
</defs>
</svg>
