<svg width="16" height="16" viewBox="0 0 16 16" fill="none" xmlns="http://www.w3.org/2000/svg">
<path d="M8 13.167L7.93994 13.0794C7.52318 12.4717 7.3148 12.1677 7.03946 11.9477C6.79572 11.7529 6.51486 11.6068 6.21297 11.5177C5.87195 11.417 5.49627 11.417 4.74489 11.417H3.92C3.24793 11.417 2.9119 11.417 2.65521 11.2898C2.42941 11.178 2.24584 10.9995 2.13079 10.78C2 10.5304 2 10.2037 2 9.55033V4.53366C2 3.88026 2 3.55357 2.13079 3.304C2.24584 3.08448 2.42941 2.906 2.65521 2.79415C2.9119 2.66699 3.24793 2.66699 3.92 2.66699H4.16C5.50413 2.66699 6.17619 2.66699 6.68958 2.92131C7.14116 3.14502 7.5083 3.50197 7.7384 3.94102C8 4.44014 8 5.09354 8 6.40033M8 13.167V6.40033M8 13.167L8.06006 13.0794C8.47682 12.4717 8.6852 12.1677 8.96054 11.9477C9.20426 11.7529 9.48512 11.6068 9.78704 11.5177C10.128 11.417 10.5037 11.417 11.2551 11.417H12.08C12.7521 11.417 13.0881 11.417 13.3448 11.2898C13.5706 11.178 13.7542 10.9995 13.8692 10.78C14 10.5304 14 10.2037 14 9.55033V4.53366C14 3.88026 14 3.55357 13.8692 3.304C13.7542 3.08448 13.5706 2.906 13.3448 2.79415C13.0881 2.66699 12.7521 2.66699 12.08 2.66699H11.84C10.4959 2.66699 9.82382 2.66699 9.3104 2.92131C8.85884 3.14502 8.4917 3.50197 8.2616 3.94102C8 4.44014 8 5.09354 8 6.40033" stroke="#808596" style="stroke:#808596;stroke:color(display-p3 0.5020 0.5216 0.5882);stroke-opacity:1;" stroke-width="1.25" stroke-linecap="round" stroke-linejoin="round"/>
</svg>
