<svg width="24" height="24" viewBox="0 0 24 24" fill="none" xmlns="http://www.w3.org/2000/svg">
<path d="M20.1 10.2H3.89999M15.6 3V6.6M8.39999 3V6.6M8.21999 21H15.78C17.2922 21 18.0482 21 18.6258 20.7057C19.1338 20.4469 19.5469 20.0338 19.8057 19.5258C20.1 18.9482 20.1 18.1922 20.1 16.68V9.12C20.1 7.60786 20.1 6.85178 19.8057 6.27423C19.5469 5.76619 19.1338 5.35314 18.6258 5.09428C18.0482 4.8 17.2922 4.8 15.78 4.8H8.21999C6.70785 4.8 5.95178 4.8 5.37422 5.09428C4.86618 5.35314 4.45313 5.76619 4.19428 6.27423C3.89999 6.85178 3.89999 7.60786 3.89999 9.12V16.68C3.89999 18.1922 3.89999 18.9482 4.19428 19.5258C4.45313 20.0338 4.86618 20.4469 5.37422 20.7057C5.95178 21 6.70785 21 8.21999 21Z" stroke="#010B2E" stroke-width="1.75" stroke-linecap="round" stroke-linejoin="round"/>
</svg>
