<svg width="16" height="16" viewBox="0 0 16 16" fill="none" xmlns="http://www.w3.org/2000/svg">
<path d="M13.4 6.8H2.60002M10.4 2V4.4M5.60002 2V4.4M5.48002 14H10.52C11.5281 14 12.0321 14 12.4172 13.8038C12.7559 13.6312 13.0313 13.3559 13.2038 13.0172C13.4 12.6321 13.4 12.1281 13.4 11.12V6.08C13.4 5.0719 13.4 4.56786 13.2038 4.18282C13.0313 3.84412 12.7559 3.56876 12.4172 3.39619C12.0321 3.2 11.5281 3.2 10.52 3.2H5.48002C4.47193 3.2 3.96788 3.2 3.58284 3.39619C3.24415 3.56876 2.96878 3.84412 2.79621 4.18282C2.60002 4.56786 2.60002 5.0719 2.60002 6.08V11.12C2.60002 12.1281 2.60002 12.6321 2.79621 13.0172C2.96878 13.3559 3.24415 13.6312 3.58284 13.8038C3.96788 14 4.47193 14 5.48002 14Z" stroke="#010B2E" stroke-width="1.25" stroke-linecap="round" stroke-linejoin="round"/>
</svg>
