<svg width="24" height="24" viewBox="0 0 24 24" fill="none" xmlns="http://www.w3.org/2000/svg">
<path d="M9.01429 21.1666H14.9857C15.8658 21.1666 16.3059 21.1666 16.642 20.9668C16.9377 20.791 17.1781 20.5105 17.3287 20.1656C17.5 19.7734 17.5 19.26 17.5 18.2333V5.76659C17.5 4.73982 17.5 4.22644 17.3287 3.83427C17.1781 3.4893 16.9377 3.20884 16.642 3.03308C16.3059 2.83325 15.8658 2.83325 14.9857 2.83325H9.01429C8.13421 2.83325 7.69416 2.83325 7.35802 3.03308C7.06233 3.20884 6.82193 3.4893 6.67128 3.83427C6.5 4.22644 6.5 4.73983 6.5 5.76659V18.2333C6.5 19.26 6.5 19.7734 6.67128 20.1656C6.82193 20.5105 7.06233 20.791 7.35802 20.9668C7.69416 21.1666 8.1342 21.1666 9.01429 21.1666Z" stroke="#010B2E" stroke-width="1.75" stroke-linecap="round" stroke-linejoin="round"/>
<path d="M9.25 18.4165H14.75" stroke="#010B2E" stroke-width="1.75" stroke-linecap="round"/>
<path d="M14.75 3.11658C14.75 3.62996 14.75 3.88665 14.6501 4.08273C14.5622 4.25521 14.422 4.39545 14.2495 4.48334C14.0534 4.58324 13.7968 4.58324 13.2833 4.58324H10.7167C10.2032 4.58324 9.94659 4.58324 9.75051 4.48334C9.57803 4.39545 9.4378 4.25521 9.34991 4.08273C9.25 3.88665 9.25 3.62996 9.25 3.11658" stroke="#010B2E" stroke-width="1.75" stroke-linecap="round" stroke-linejoin="round"/>
</svg>
