<svg width="16" height="16" viewBox="0 0 16 16" fill="none" xmlns="http://www.w3.org/2000/svg">
<path d="M6.00953 14.1111H9.99048C10.5772 14.1111 10.8706 14.1111 11.0947 13.9779C11.2918 13.8608 11.4521 13.6738 11.5525 13.4438C11.6667 13.1824 11.6667 12.8401 11.6667 12.1556V3.84447C11.6667 3.15996 11.6667 2.81771 11.5525 2.55626C11.4521 2.32628 11.2918 2.13931 11.0947 2.02213C10.8706 1.88892 10.5772 1.88892 9.99048 1.88892H6.00953C5.42281 1.88892 5.12944 1.88892 4.90535 2.02213C4.70822 2.13931 4.54796 2.32628 4.44752 2.55626C4.33334 2.81771 4.33334 3.15997 4.33334 3.84447V12.1556C4.33334 12.8401 4.33334 13.1824 4.44752 13.4438C4.54796 13.6738 4.70822 13.8608 4.90535 13.9779C5.12944 14.1111 5.4228 14.1111 6.00953 14.1111Z" stroke="#010B2E" stroke-width="1.25" stroke-linecap="round" stroke-linejoin="round"/>
<path d="M6.16663 12.2778H9.83329" stroke="#010B2E" stroke-width="1.25" stroke-linecap="round"/>
<path d="M9.83325 2.08582C9.83325 2.42807 9.83325 2.5992 9.76664 2.72992C9.70804 2.84491 9.6146 2.93839 9.49959 2.99699C9.36887 3.06359 9.19776 3.06359 8.85548 3.06359H7.14437C6.80208 3.06359 6.63098 3.06359 6.50026 2.99699C6.38527 2.93839 6.29179 2.84491 6.23319 2.72992C6.16659 2.5992 6.16659 2.42807 6.16659 2.08582" stroke="#010B2E" stroke-width="1.25" stroke-linecap="round" stroke-linejoin="round"/>
</svg>
