<svg width="16" height="16" viewBox="0 0 16 16" fill="none" xmlns="http://www.w3.org/2000/svg">
<path d="M7.52178 2.30218C7.67538 1.99088 7.75224 1.83524 7.85651 1.7855C7.94724 1.74224 8.05271 1.74224 8.14344 1.7855C8.24778 1.83524 8.32458 1.99088 8.47824 2.30218L9.93604 5.25548C9.98138 5.34738 10.004 5.39334 10.0372 5.42902C10.0666 5.4606 10.1018 5.4862 10.1408 5.50438C10.185 5.52491 10.2357 5.53232 10.3371 5.54714L13.598 6.02377C13.9414 6.07396 14.113 6.09905 14.1925 6.18292C14.2616 6.25589 14.2941 6.35616 14.281 6.45581C14.2658 6.57035 14.1416 6.69143 13.893 6.93356L11.5342 9.23089C11.4608 9.30249 11.424 9.33836 11.4002 9.38096C11.3792 9.41863 11.3658 9.46009 11.3606 9.50296C11.3547 9.55136 11.3634 9.60196 11.3807 9.70309L11.9373 12.948C11.996 13.2903 12.0253 13.4614 11.9702 13.563C11.9222 13.6513 11.8369 13.7133 11.738 13.7316C11.6244 13.7527 11.4707 13.6718 11.1634 13.5102L8.24824 11.9772C8.15738 11.9294 8.11198 11.9056 8.06411 11.8962C8.02178 11.8878 7.97818 11.8878 7.93584 11.8962C7.88798 11.9056 7.84258 11.9294 7.75178 11.9772L4.83659 13.5102C4.52926 13.6718 4.37558 13.7527 4.26196 13.7316C4.1631 13.7133 4.07779 13.6513 4.0298 13.563C3.97464 13.4614 4.004 13.2903 4.06269 12.948L4.61924 9.70309C4.63658 9.60196 4.64526 9.55136 4.63939 9.50296C4.63419 9.46009 4.62072 9.41863 4.59972 9.38096C4.57599 9.33836 4.53923 9.30249 4.4657 9.23089L2.10702 6.93356C1.85842 6.69143 1.73412 6.57035 1.719 6.45581C1.70584 6.35616 1.73834 6.25589 1.80748 6.18292C1.88694 6.09905 2.05862 6.07396 2.402 6.02377L5.66285 5.54714C5.76426 5.53232 5.81496 5.52491 5.85912 5.50438C5.89822 5.4862 5.93342 5.4606 5.96277 5.42902C5.99592 5.39334 6.0186 5.34738 6.06396 5.25548L7.52178 2.30218Z" stroke="#010B2E" stroke-width="1.25" stroke-linecap="round" stroke-linejoin="round"/>
</svg>
